<?xml version="1.0" encoding="utf-8"?>
<!-- Generator: Adobe Illustrator 26.5.0, SVG Export Plug-In . SVG Version: 6.00 Build 0)  -->
<svg version="1.1" id="Layer_1" xmlns="http://www.w3.org/2000/svg" xmlns:xlink="http://www.w3.org/1999/xlink" x="0px" y="0px"
	 viewBox="0 0 24 24" style="enable-background:new 0 0 24 24;" xml:space="preserve">
<style type="text/css">
	.st0{fill-rule:evenodd;clip-rule:evenodd;fill:#FFFFFF;}
</style>
<rect x="12" y="4.3" class="st0" width="7.7" height="1"/>
<rect x="-3" y="11.5" transform="matrix(6.123234e-17 -1 1 6.123234e-17 -7.2267 16.7733)" class="st0" width="15.5" height="1"/>
<rect x="15.4" y="7.6" transform="matrix(6.123234e-17 -1 1 6.123234e-17 11.0901 27.3633)" class="st0" width="7.7" height="1"/>
<rect x="16.7" y="16.7" transform="matrix(6.123234e-17 -1 1 6.123234e-17 2.0453 36.4081)" class="st0" width="5.1" height="1"/>
<rect x="4.3" y="4.3" class="st0" width="5.1" height="1"/>
<rect x="6.2" y="9.6" transform="matrix(0.7071 -0.7071 0.7071 0.7071 -3.061 12.791)" class="st0" width="15.5" height="1"/>
<rect x="4.3" y="18.7" class="st0" width="15.5" height="1"/>
</svg>
