<?xml version="1.0" encoding="utf-8"?>
<!-- Generator: Adobe Illustrator 26.0.1, SVG Export Plug-In . SVG Version: 6.00 Build 0)  -->
<svg version="1.1" id="Layer_1" xmlns="http://www.w3.org/2000/svg" xmlns:xlink="http://www.w3.org/1999/xlink" x="0px" y="0px"
	 viewBox="0 0 397.04 177.52" style="enable-background:new 0 0 397.04 177.52;" xml:space="preserve">
<style type="text/css">
	.st0{fill:#FFFFFF;}
</style>
<g>
	<path class="st0" d="M49.72,23.75c-4-3.33-9.1-5.55-14.43-5.55c-4,0-9.32,2.33-9.32,6.99c0,4.88,5.88,6.77,9.66,7.99l5.55,1.66
		c11.65,3.44,20.64,9.32,20.64,22.86c0,8.32-2,16.87-8.66,22.53c-6.55,5.55-15.32,7.88-23.75,7.88c-10.54,0-20.87-3.55-29.41-9.54
		l9.32-17.54c5.44,4.77,11.87,8.66,19.31,8.66c5.1,0,10.54-2.55,10.54-8.43c0-6.1-8.55-8.21-13.21-9.54
		C12.32,47.83,3.33,44.28,3.33,28.08C3.33,11.1,15.43,0,32.18,0c8.43,0,18.76,2.66,26.19,6.88L49.72,23.75z"/>
	<path class="st0" d="M131.73,85.9h-20.2v-6.33h-0.22c-3.55,5.66-10.54,8.21-17.2,8.21c-16.87,0-28.74-14.09-28.74-30.41
		s11.65-30.3,28.52-30.3c6.55,0,13.43,2.44,17.65,7.44v-5.55h20.2V85.9H131.73z M86.22,57.49c0,7.21,4.77,12.76,12.99,12.76
		s12.98-5.55,12.98-12.76c0-6.99-4.77-12.87-12.98-12.87S86.22,50.5,86.22,57.49z"/>
	<path class="st0" d="M156.46,36.07h0.22c4.77-6.33,10.65-8.99,17.98-8.99c8.21,0,15.31,3.33,19.42,10.88
		c3.88-7.1,11.54-10.88,19.31-10.88c14.43,0,19.42,9.43,19.42,22.53V85.9h-20.2V58.71c0-5.88,0.22-15.54-8.32-15.54
		c-9.32,0-9.66,8.77-9.66,15.54V85.9h-20.2V58.71c0-6.33,0-15.98-8.99-15.98s-8.99,9.66-8.99,15.98V85.9h-20.2V28.97h20.2v7.1
		H156.46z"/>
	<path class="st0" d="M3.77,91.96h33.29c17.98,0,30.41,8.32,30.41,27.52c0,19.75-10.65,28.41-29.63,28.41H25.52v27.75H3.77V91.96z
		 M25.52,130.36h3.66c7.88,0,15.65,0,15.65-10.21c0-10.54-7.21-10.65-15.65-10.65h-3.66C25.52,109.5,25.52,130.36,25.52,130.36z"/>
	<path class="st0" d="M91.44,104.08c0,6.21-5.1,11.32-11.32,11.32c-6.21,0-11.32-5.11-11.32-11.32c0-6.22,5.1-11.32,11.32-11.32
		C86.33,92.76,91.44,97.86,91.44,104.08z M90.22,175.64h-20.2V118.7h20.2V175.64z"/>
	<path class="st0" d="M121.18,175.64h-20.2v-40.29h-6.55V118.7h6.55v-17.09h20.2v17.09h11.43v16.65h-11.43L121.18,175.64
		L121.18,175.64z"/>
	<path class="st0" d="M156.42,175.64h-20.2v-40.29h-6.55V118.7h6.55v-17.09h20.2v17.09h6.43v16.65h-6.43V175.64z"/>
	<path class="st0" d="M187.31,125.81h0.22c4.77-6.33,10.65-8.99,17.98-8.99c8.21,0,15.32,3.33,19.42,10.88
		c3.88-7.1,11.54-10.88,19.31-10.88c14.43,0,19.42,9.43,19.42,22.53v36.29h-20.2v-27.19c0-5.88,0.22-15.54-8.32-15.54
		c-9.32,0-9.66,8.77-9.66,15.54v27.19h-20.2v-27.19c0-6.33,0-15.98-8.99-15.98s-8.99,9.66-8.99,15.98v27.19h-20.2V118.7h20.2
		L187.31,125.81L187.31,125.81z"/>
	<path class="st0" d="M332.46,175.64h-20.2v-6.33h-0.22c-3.55,5.66-10.54,8.21-17.2,8.21c-16.87,0-28.74-14.09-28.74-30.41
		s11.65-30.3,28.52-30.3c6.55,0,13.43,2.44,17.65,7.44v-5.55h20.2L332.46,175.64L332.46,175.64z M286.95,147.23
		c0,7.21,4.77,12.76,12.99,12.76c8.21,0,12.98-5.55,12.98-12.76c0-6.99-4.77-12.87-12.98-12.87
		C291.73,134.35,286.95,140.23,286.95,147.23z"/>
	<path class="st0" d="M357.2,126.03h0.22c4.66-6.88,10.32-9.21,18.2-9.21c15.32,0,21.42,9.66,21.42,23.64v35.18h-20.2v-27.75
		c0-5.44,0.89-14.98-9.1-14.98c-8.21,0-10.54,6.1-10.54,13.21v29.52H337V118.7h20.2V126.03z"/>
</g>
</svg>
